<?xml version="1.0" encoding="UTF-8"?>
<svg width="160px" height="120px" viewBox="0 0 160 120" version="1.1" xmlns="http://www.w3.org/2000/svg" xmlns:xlink="http://www.w3.org/1999/xlink">
    <!-- Generator: Sketch 64 (93537) - https://sketch.com -->
    <title>Artboard</title>
    <desc>Created with Sketch.</desc>
    <g id="Artboard" stroke="none" stroke-width="1" fill="none" fill-rule="evenodd">
        <polygon id="Rectangle" fill="#018080" points="10 0 150 0 150 20 140 20 140 10 10 10"></polygon>
        <polygon id="Rectangle-Copy-4" fill="#011480" points="20 100 140 100 140 20 150 20 150 110 20 110"></polygon>
        <polygon id="Rectangle-Copy-2" fill="#018080" transform="translate(10.000000, 60.000000) rotate(90.000000) translate(-10.000000, -60.000000) " points="-40 60 50 60 50 50 60 50 60 70 -40 70"></polygon>
        <rect id="Rectangle-Copy" fill="#202020" x="10" y="110" width="140" height="10"></rect>
        <rect id="Rectangle-Copy-3" fill="#202020" transform="translate(155.000000, 60.000000) rotate(90.000000) translate(-155.000000, -60.000000) " x="105" y="55" width="100" height="10"></rect>
        <rect id="Rectangle" fill="#FFFFFF" x="10" y="10" width="10" height="10"></rect>
        <rect id="Rectangle-Copy-12" fill="#FFFFFF" x="10" y="30" width="10" height="10"></rect>
        <rect id="Rectangle-Copy-13" fill="#FFFFFF" x="10" y="50" width="10" height="10"></rect>
        <rect id="Rectangle-Copy-14" fill="#FFFFFF" x="10" y="70" width="10" height="10"></rect>
        <rect id="Rectangle-Copy-15" fill="#FFFFFF" x="10" y="90" width="10" height="10"></rect>
        <rect id="Rectangle-Copy-6" fill="#FFFFFF" x="30" y="10" width="10" height="10"></rect>
        <rect id="Rectangle-Copy-7" fill="#FFFFFF" x="50" y="10" width="10" height="10"></rect>
        <rect id="Rectangle-Copy-8" fill="#FFFFFF" x="70" y="10" width="10" height="10"></rect>
        <rect id="Rectangle-Copy-9" fill="#FFFFFF" x="90" y="10" width="10" height="10"></rect>
        <rect id="Rectangle-Copy-10" fill="#FFFFFF" x="110" y="10" width="10" height="10"></rect>
        <rect id="Rectangle-Copy-11" fill="#FFFFFF" x="130" y="10" width="10" height="10"></rect>
        <polygon id="Rectangle" fill="#202020" points="20 20 100 20 100 30 30 30 30 50 20 50"></polygon>
        <rect id="Rectangle" fill="#FFFFFF" x="30" y="30" width="60" height="10"></rect>
        <polygon id="Path" fill="#C0C0C0" points="90 30 100 30 100 50 30 50 30 40 90 40"></polygon>
        <rect id="Rectangle" fill="#FFFFFF" x="40" y="60" width="10" height="10"></rect>
        <rect id="Rectangle-Copy-21" fill="#FFFFFF" x="40" y="80" width="10" height="10"></rect>
        <rect id="Rectangle-Copy-16" fill="#FFFFFF" x="60" y="60" width="10" height="10"></rect>
        <rect id="Rectangle-Copy-22" fill="#FFFFFF" x="60" y="80" width="10" height="10"></rect>
        <rect id="Rectangle-Copy-17" fill="#FFFFFF" x="80" y="60" width="10" height="10"></rect>
        <rect id="Rectangle-Copy-23" fill="#FFFFFF" x="80" y="80" width="10" height="10"></rect>
        <rect id="Rectangle-Copy-18" fill="#FFFFFF" x="100" y="60" width="10" height="10"></rect>
        <rect id="Rectangle-Copy-24" fill="#FFFFFF" x="100" y="80" width="20" height="10"></rect>
        <rect id="Rectangle-Copy-19" fill="#FFFFFF" x="120" y="60" width="10" height="10"></rect>
        <rect id="Rectangle-Copy-25" fill="#C0C0C0" x="120" y="80" width="10" height="10"></rect>
        <polygon id="Path-2" fill="#018080" points="140 20 100 20 100 50 20 50 20 100 140 100 140 90 30 90 30 80 140 80 140 70 30 70 30 60 140 60"></polygon>
        <rect id="Rectangle" fill="#00FDFF" x="120" y="10" width="10" height="10"></rect>
        <rect id="Rectangle-Copy-5" fill="#00FDFF" x="100" y="10" width="10" height="10"></rect>
        <rect id="Rectangle-Copy-26" fill="#00FDFF" x="80" y="10" width="10" height="10"></rect>
        <rect id="Rectangle-Copy-27" fill="#00FDFF" x="60" y="10" width="10" height="10"></rect>
        <rect id="Rectangle-Copy-28" fill="#00FDFF" x="40" y="10" width="10" height="10"></rect>
        <rect id="Rectangle-Copy-29" fill="#00FDFF" x="20" y="10" width="10" height="10"></rect>
        <rect id="Rectangle-Copy-30" fill="#00FDFF" x="10" y="20" width="10" height="10"></rect>
        <rect id="Rectangle-Copy-31" fill="#00FDFF" x="10" y="40" width="10" height="10"></rect>
        <rect id="Rectangle-Copy-32" fill="#00FDFF" x="10" y="60" width="10" height="10"></rect>
        <rect id="Rectangle-Copy-33" fill="#00FDFF" x="10" y="80" width="10" height="10"></rect>
        <rect id="Rectangle" fill="#202020" x="30" y="60" width="10" height="10"></rect>
        <rect id="Rectangle-Copy-38" fill="#202020" x="30" y="80" width="10" height="10"></rect>
        <rect id="Rectangle-Copy-20" fill="#202020" x="50" y="60" width="10" height="10"></rect>
        <rect id="Rectangle-Copy-39" fill="#202020" x="50" y="80" width="10" height="10"></rect>
        <rect id="Rectangle-Copy-34" fill="#202020" x="70" y="60" width="10" height="10"></rect>
        <rect id="Rectangle-Copy-40" fill="#202020" x="70" y="80" width="10" height="10"></rect>
        <rect id="Rectangle-Copy-35" fill="#202020" x="90" y="60" width="10" height="10"></rect>
        <rect id="Rectangle-Copy-41" fill="#202020" x="90" y="80" width="10" height="10"></rect>
        <rect id="Rectangle-Copy-36" fill="#202020" x="110" y="60" width="10" height="10"></rect>
        <rect id="Rectangle-Copy-37" fill="#202020" x="130" y="60" width="10" height="10"></rect>
        <rect id="Rectangle-Copy-42" fill="#202020" x="130" y="80" width="10" height="10"></rect>
    </g>
</svg>